<svg xmlns="http://www.w3.org/2000/svg" width="24" height="34" fill="none"><path fill="#8A91AB" d="M.333 4.5c0-1.105.41-2.165 1.14-2.946C2.201.772 3.19.334 4.222.334h15.555c1.031 0 2.02.438 2.75 1.22A4.32 4.32 0 0 1 23.667 4.5v28.126c0 .188-.048.373-.139.534-.09.162-.22.294-.375.383a.92.92 0 0 1-.997-.05L12 27.626 1.844 33.493a.919.919 0 0 1-.998.051 1 1 0 0 1-.374-.383 1.1 1.1 0 0 1-.139-.534zm3.89-2.083c-.517 0-1.011.22-1.376.61-.364.39-.57.92-.57 1.473v26.18l9.184-5.171a.93.93 0 0 1 .539-.175c.192 0 .379.061.539.175l9.183 5.17V4.5c0-.552-.205-1.082-.57-1.473a1.88 1.88 0 0 0-1.374-.61z"/></svg>