<svg xmlns="http://www.w3.org/2000/svg" width="359" height="249" fill="none"><path fill="url(#a)" d="M160.823 66.478c0 36.683-29.738 66.421-66.42 66.421-36.684 0-66.421-29.738-66.421-66.42 0-36.684 29.737-66.421 66.42-66.421s66.421 29.737 66.421 66.42"/><g filter="url(#b)"><path fill="#fff" fill-rule="evenodd" d="M166.285 248.779v.003H78.94c-43.475 0-78.718-35.243-78.718-78.718S35.465 91.346 78.94 91.346h4.314c15.258 0 29.556 4.116 41.842 11.298 15.973-47.321 60.725-81.393 113.436-81.393h5.931c62.83 0 113.764 50.934 113.764 113.764s-50.934 113.764-113.764 113.764z" clip-rule="evenodd"/></g><defs><radialGradient id="a" cx="0" cy="0" r="1" gradientTransform="rotate(132.136 53.697 41.95)scale(138.393)" gradientUnits="userSpaceOnUse"><stop stop-color="#FFF72C"/><stop offset="1" stop-color="#DF7800"/></radialGradient><filter id="b" width="630.101" height="499.628" x="-188.152" y="-135.728" color-interpolation-filters="sRGB" filterUnits="userSpaceOnUse"><feFlood flood-opacity="0" result="BackgroundImageFix"/><feBlend in="SourceGraphic" in2="BackgroundImageFix" result="shape"/><feColorMatrix in="SourceAlpha" result="hardAlpha" values="0 0 0 0 0 0 0 0 0 0 0 0 0 0 0 0 0 0 127 0"/><feOffset dx="83.722" dy="-156.979"/><feGaussianBlur stdDeviation="156.979"/><feComposite in2="hardAlpha" k2="-1" k3="1" operator="arithmetic"/><feColorMatrix values="0 0 0 0 0 0 0 0 0 0 0 0 0 0 0 0 0 0 0.2 0"/><feBlend in2="shape" result="effect1_innerShadow_3462_700"/><feColorMatrix in="SourceAlpha" result="hardAlpha" values="0 0 0 0 0 0 0 0 0 0 0 0 0 0 0 0 0 0 127 0"/><feOffset dx="-188.374" dy="115.118"/><feGaussianBlur stdDeviation="156.979"/><feComposite in2="hardAlpha" k2="-1" k3="1" operator="arithmetic"/><feColorMatrix values="0 0 0 0 1 0 0 0 0 1 0 0 0 0 1 0 0 0 1 0"/><feBlend in2="effect1_innerShadow_3462_700" result="effect2_innerShadow_3462_700"/></filter></defs></svg>