<svg xmlns="http://www.w3.org/2000/svg" width="200" height="200" fill="none"><g filter="url(#a)"><path fill="#FA9E42" d="M99.59 151.165c28.484 0 51.575-23.091 51.575-51.575S128.074 48.014 99.59 48.014 48.014 71.106 48.014 99.59s23.092 51.575 51.576 51.575"/></g><path fill="#FA9E42" fill-rule="evenodd" d="M99.019 30.002a73 73 0 0 1 1.142 0 5 5 0 1 1-.08 10 62 62 0 0 0-.982 0 5 5 0 0 1-.08-10m28.064 10.91a5 5 0 0 1 6.817-1.879q.495.282.986.57a5 5 0 0 1-5.079 8.615q-.42-.248-.844-.489a5 5 0 0 1-1.88-6.816m-54.986 0a5 5 0 0 1-1.88 6.817q-.424.24-.844.489a5 5 0 0 1-5.079-8.615q.49-.289.986-.57a5 5 0 0 1 6.817 1.88m80.633 21.615a5 5 0 0 1 6.847 1.767q.288.49.57.986a5 5 0 0 1-8.696 4.937 65 65 0 0 0-.489-.844 5 5 0 0 1 1.768-6.847m-106.28 0a5 5 0 0 1 1.768 6.846q-.248.42-.489.844a5 5 0 0 1-8.696-4.937q.282-.495.57-.986a5 5 0 0 1 6.847-1.767m117.687 31.532a5 5 0 0 1 5.041 4.96 109 109 0 0 1 0 1.142 5 5 0 0 1-10-.08l.002-.491-.002-.49a5 5 0 0 1 4.959-5.04m-129.095 0a5 5 0 0 1 4.96 5.04 62 62 0 0 0 0 .982 5 5 0 1 1-10 .08 72 72 0 0 1 0-1.142 5 5 0 0 1 5.04-4.96m123.225 33.024a5 5 0 0 1 1.88 6.817q-.282.495-.57.986a5 5 0 0 1-8.615-5.079q.248-.42.489-.844a5 5 0 0 1 6.816-1.88m-117.354 0a5 5 0 0 1 6.816 1.88q.24.424.489.844a5 5 0 0 1-8.614 5.079 72 72 0 0 1-.571-.986 5 5 0 0 1 1.88-6.817m95.74 25.647a5 5 0 0 1-1.767 6.847q-.49.288-.986.57a5 5 0 0 1-4.937-8.696q.424-.242.844-.489a5 5 0 0 1 6.846 1.768m-74.126 0a5 5 0 0 1 6.846-1.768q.42.248.844.489a5 5 0 1 1-4.937 8.696 83 83 0 0 1-.986-.57 5 5 0 0 1-1.767-6.847m31.532 11.407a5 5 0 0 1 5.04-4.959l.49.002.492-.002a5 5 0 1 1 .08 10l-.571.002-.277-.001-.294-.001a5 5 0 0 1-4.96-5.041" clip-rule="evenodd"/><g filter="url(#b)"><path fill="#F8E36F" d="M96.002 93.115c18.042-9.583 28.248-25.673 22.796-35.938S94.3 46.359 76.258 55.94C58.216 65.524 48.01 81.614 53.462 91.88s24.498 10.819 42.54 1.236"/></g><defs><filter id="a" width="163.151" height="163.151" x="28.014" y="20.014" color-interpolation-filters="sRGB" filterUnits="userSpaceOnUse"><feFlood flood-opacity="0" result="BackgroundImageFix"/><feColorMatrix in="SourceAlpha" result="hardAlpha" values="0 0 0 0 0 0 0 0 0 0 0 0 0 0 0 0 0 0 127 0"/><feOffset dx="10" dy="2"/><feGaussianBlur stdDeviation="15"/><feColorMatrix values="0 0 0 0 0 0 0 0 0 0 0 0 0 0 0 0 0 0 0.25 0"/><feBlend in2="BackgroundImageFix" result="effect1_dropShadow_1506_805"/><feBlend in="SourceGraphic" in2="effect1_dropShadow_1506_805" result="shape"/></filter><filter id="b" width="108.272" height="90.854" x="31.994" y="29.101" color-interpolation-filters="sRGB" filterUnits="userSpaceOnUse"><feFlood flood-opacity="0" result="BackgroundImageFix"/><feBlend in="SourceGraphic" in2="BackgroundImageFix" result="shape"/><feGaussianBlur result="effect1_foregroundBlur_1506_805" stdDeviation="10"/></filter></defs></svg>