<svg xmlns="http://www.w3.org/2000/svg" width="249" height="200" fill="none"><g filter="url(#a)"><path fill="url(#b)" d="M160.244 158.694H58.297a38.3 38.3 0 0 1-28.622-63.713 38.3 38.3 0 0 1 25.59-12.762 47.94 47.94 0 0 1 89.269-16.748 47.953 47.953 0 0 1 58.599 66.714 38.3 38.3 0 0 1-13.915 19.18 38.3 38.3 0 0 1-22.534 7.329z"/><path fill="#fff" fill-opacity=".5" d="M166.684 158.161c4.112 0 8.154-.657 12.015-1.951a37.6 37.6 0 0 0 10.418-5.43 38 38 0 0 0 8.188-8.276 37.6 37.6 0 0 0 5.321-10.483l.013-.038.018-.037a47.2 47.2 0 0 0 3.688-10.126c.861-3.6 1.297-7.32 1.297-11.056 0-3.216-.324-6.43-.963-9.553a47.2 47.2 0 0 0-7.132-16.947 47.7 47.7 0 0 0-12.802-12.803 47.168 47.168 0 0 0-16.947-7.131 47.8 47.8 0 0 0-9.553-.963c-5.325 0-10.553.876-15.536 2.605l-.421.146-.218-.388a47.65 47.65 0 0 0-17.061-17.515 47.15 47.15 0 0 0-24.28-6.683A47.2 47.2 0 0 0 71.5 53.275a47.4 47.4 0 0 0-10.376 12.932 47 47 0 0 0-5.33 16.085l-.06.424-.426.033c-4.771.374-9.361 1.63-13.643 3.733A37.7 37.7 0 0 0 30.623 94.7a37.64 37.64 0 0 0-10.09 25.697 37.5 37.5 0 0 0 2.967 14.7 37.7 37.7 0 0 0 3.482 6.414 38 38 0 0 0 10.201 10.202 38 38 0 0 0 6.415 3.481 37.5 37.5 0 0 0 14.7 2.968h108.386m0 .532H58.297c-21.15 0-38.297-17.146-38.297-38.297 0-20.131 15.532-36.634 35.266-38.179C58.53 58.924 78.536 41 102.729 41c17.948 0 33.592 9.865 41.805 24.469a47.9 47.9 0 0 1 15.711-2.635c26.471 0 47.929 21.46 47.929 47.93a47.7 47.7 0 0 1-5.041 21.421c-4.971 15.383-19.411 26.508-36.449 26.508"/></g><defs><linearGradient id="b" x1="114.1" x2="168.763" y1="41.001" y2="173.161" gradientUnits="userSpaceOnUse"><stop stop-color="#fff" stop-opacity=".604"/><stop offset="1" stop-color="#fff" stop-opacity=".2"/></linearGradient><filter id="a" width="248.174" height="177.694" x="0" y="13" color-interpolation-filters="sRGB" filterUnits="userSpaceOnUse"><feFlood flood-opacity="0" result="BackgroundImageFix"/><feColorMatrix in="SourceAlpha" result="hardAlpha" values="0 0 0 0 0 0 0 0 0 0 0 0 0 0 0 0 0 0 127 0"/><feOffset dx="10" dy="2"/><feGaussianBlur stdDeviation="15"/><feColorMatrix values="0 0 0 0 0 0 0 0 0 0 0 0 0 0 0 0 0 0 0.25 0"/><feBlend in2="BackgroundImageFix" result="effect1_dropShadow_1506_810"/><feBlend in="SourceGraphic" in2="effect1_dropShadow_1506_810" result="shape"/></filter></defs></svg>