<svg xmlns="http://www.w3.org/2000/svg" width="200" height="200" fill="none"><g fill="#BBB185" filter="url(#a)"><circle cx="43" cy="47" r="5"/><circle cx="43" cy="89" r="5"/><circle cx="43" cy="131" r="5"/><circle cx="56" cy="68" r="5"/><circle cx="56" cy="110" r="5"/><circle cx="56" cy="152" r="5"/><circle cx="68" cy="47" r="5"/><circle cx="68" cy="89" r="5"/><circle cx="68" cy="131" r="5"/><circle cx="81" cy="68" r="5"/><circle cx="81" cy="110" r="5"/><circle cx="81" cy="152" r="5"/><circle cx="93" cy="47" r="5"/><circle cx="93" cy="89" r="5"/><circle cx="93" cy="131" r="5"/><circle cx="106" cy="68" r="5"/><circle cx="106" cy="110" r="5"/><circle cx="106" cy="152" r="5"/><circle cx="118" cy="47" r="5"/><circle cx="118" cy="89" r="5"/><circle cx="118" cy="131" r="5"/><circle cx="131" cy="68" r="5"/><circle cx="131" cy="110" r="5"/><circle cx="131" cy="152" r="5"/><circle cx="143" cy="47" r="5"/><circle cx="143" cy="89" r="5"/><circle cx="143" cy="131" r="5"/><circle cx="156" cy="68" r="5"/><circle cx="156" cy="110" r="5"/><circle cx="156" cy="152" r="5"/></g><defs><filter id="a" width="153" height="145" x="27" y="29" color-interpolation-filters="sRGB" filterUnits="userSpaceOnUse"><feFlood flood-opacity="0" result="BackgroundImageFix"/><feColorMatrix in="SourceAlpha" result="hardAlpha" values="0 0 0 0 0 0 0 0 0 0 0 0 0 0 0 0 0 0 127 0"/><feOffset dx="4" dy="2"/><feGaussianBlur stdDeviation="7.5"/><feComposite in2="hardAlpha" operator="out"/><feColorMatrix values="0 0 0 0 0.854167 0 0 0 0 0.854167 0 0 0 0 0.854167 0 0 0 1 0"/><feBlend in2="BackgroundImageFix" result="effect1_dropShadow_1506_813"/><feBlend in="SourceGraphic" in2="effect1_dropShadow_1506_813" result="shape"/></filter></defs></svg>