<svg xmlns="http://www.w3.org/2000/svg" width="200" height="200" fill="none"><g fill="#fff" fill-rule="evenodd" clip-rule="evenodd" filter="url(#a)"><path d="M98.555 91.913c-2.234.865-4.117 1.927-5.172 2.672a5 5 0 1 1-5.766-8.17c1.778-1.255 4.395-2.693 7.328-3.828C97.858 81.46 101.414 80.5 105 80.5c4.406 0 7.333 1.853 9.253 3.069l.313.197c1.792 1.126 2.894 1.734 4.934 1.734 2.254 0 4.108-.769 6.514-1.972q.303-.152.649-.33c2.09-1.07 5.27-2.698 8.837-2.698 3.631 0 6.931 1.671 9.093 2.766l.518.262c2.58 1.29 4.219 1.972 5.889 1.972 1.224 0 3.18-.514 5.289-1.447.99-.438 1.885-.912 2.588-1.34.35-.213.629-.4.833-.55.186-.136.262-.206.262-.206l-.001.001a5 5 0 0 1 7.065 7.078c-1.492 1.49-4.167 3.04-6.7 4.161-2.599 1.15-6.06 2.303-9.336 2.303-4.306 0-7.901-1.798-10.32-3.008l-.041-.02c-2.87-1.435-4.074-1.972-5.139-1.972-1.041 0-2.059.495-5.014 1.972-2.594 1.297-6.24 3.028-10.986 3.028-4.96 0-8.066-1.892-10.254-3.266-2.069-1.3-2.816-1.734-4.246-1.734-1.914 0-4.191.54-6.445 1.413M88.055 137.913c-2.234.865-4.117 1.927-5.172 2.672a5 5 0 0 1-5.766-8.17c1.778-1.255 4.395-2.693 7.328-3.828 2.913-1.127 6.47-2.087 10.055-2.087 4.406 0 7.333 1.853 9.253 3.069l.313.197c1.792 1.126 2.894 1.734 4.934 1.734 2.254 0 4.108-.769 6.514-1.972q.303-.152.649-.33c2.09-1.07 5.27-2.698 8.837-2.698 3.631 0 6.931 1.672 9.093 2.767l.518.261c2.58 1.29 4.219 1.972 5.889 1.972 1.224 0 3.18-.514 5.289-1.447.99-.438 1.885-.912 2.588-1.34.35-.213.629-.4.833-.55.186-.136.262-.206.262-.206l-.001.001a5.001 5.001 0 0 1 7.065 7.078c-1.492 1.491-4.167 3.041-6.7 4.161-2.599 1.15-6.06 2.303-9.336 2.303-4.306 0-7.901-1.798-10.32-3.008l-.041-.02c-2.87-1.435-4.074-1.972-5.139-1.972-1.041 0-2.059.495-5.014 1.972-2.594 1.297-6.24 3.028-10.986 3.028-4.96 0-8.066-1.892-10.254-3.266-2.069-1.3-2.815-1.734-4.246-1.734-1.914 0-4.191.54-6.445 1.413M144.129 58.1a5 5 0 0 1 .771 7.03c-1.532 1.908-4.433 4.035-7.313 5.623-2.882 1.59-6.826 3.247-10.628 3.247-4.943 0-9.017-2.54-11.672-4.195l-.099-.062-.333-.207c-1.339-.835-2.346-1.464-3.326-1.933-1.018-.488-1.616-.603-1.981-.603-.347 0-.897.104-1.865.58-.857.422-1.705.954-2.847 1.67q-.37.234-.788.493C101.196 71.522 97.045 74 91.575 74c-5.732 0-9.255-2.718-11.612-4.563C77.542 67.54 76.735 67 75.288 67c-2.047 0-4.549.725-7.095 1.953-2.507 1.21-4.651 2.71-5.89 3.801a5 5 0 0 1-6.606-7.508c1.944-1.71 4.854-3.709 8.15-5.3C67.107 58.376 71.157 57 75.288 57c5.07 0 8.387 2.623 10.467 4.269l.374.294C88.24 63.218 89.444 64 91.575 64c2.393 0 4.42-1.021 7.185-2.743l.62-.39c1.144-.72 2.521-1.587 3.889-2.26 1.7-.836 3.818-1.607 6.279-1.607 2.443 0 4.583.76 6.303 1.585 1.513.725 3 1.655 4.231 2.425l.395.247c2.963 1.846 4.747 2.743 6.482 2.743 1.252 0 3.393-.676 5.799-2.003 2.41-1.33 4.001-2.701 4.342-3.126a5 5 0 0 1 7.029-.77M118.033 104.025a5 5 0 0 1 .942 7.008c-1.467 1.922-4.248 4.066-7.01 5.668-2.747 1.592-6.578 3.299-10.321 3.299-4.835 0-8.794-2.595-11.295-4.235l-.127-.083-.31-.203c-1.281-.84-2.225-1.459-3.14-1.92-.948-.478-1.447-.559-1.69-.559-.224 0-.676.069-1.576.535-.799.413-1.59.935-2.675 1.651l-.755.496C77.377 117.45 73.339 120 67.986 120c-5.626 0-9.068-2.809-11.292-4.64-2.342-1.928-3.009-2.36-4.2-2.36-1.843 0-4.153.691-6.554 1.909-2.357 1.195-4.378 2.682-5.545 3.762a5 5 0 0 1-6.79-7.342c1.86-1.72 4.647-3.733 7.811-5.338 3.12-1.582 7.043-2.991 11.077-2.991 4.985 0 8.234 2.706 10.193 4.338l.364.302c2.028 1.669 3.083 2.36 4.936 2.36 2.127 0 3.966-.95 6.61-2.682l.584-.386c1.088-.72 2.414-1.598 3.732-2.279 1.637-.847 3.723-1.653 6.17-1.653 2.428 0 4.534.794 6.19 1.629 1.457.734 2.886 1.674 4.054 2.442q.194.127.376.247c2.85 1.866 4.448 2.682 5.942 2.682 1.065 0 3.022-.627 5.305-1.951 2.269-1.315 3.762-2.671 4.076-3.082a5 5 0 0 1 7.008-.942"/></g><defs><filter id="a" width="166.5" height="114.501" x="21" y="44" color-interpolation-filters="sRGB" filterUnits="userSpaceOnUse"><feFlood flood-opacity="0" result="BackgroundImageFix"/><feColorMatrix in="SourceAlpha" result="hardAlpha" values="0 0 0 0 0 0 0 0 0 0 0 0 0 0 0 0 0 0 127 0"/><feOffset dx="4" dy="2"/><feGaussianBlur stdDeviation="7.5"/><feComposite in2="hardAlpha" operator="out"/><feColorMatrix values="0 0 0 0 1 0 0 0 0 1 0 0 0 0 1 0 0 0 0.596 0"/><feBlend in2="BackgroundImageFix" result="effect1_dropShadow_1506_812"/><feBlend in="SourceGraphic" in2="effect1_dropShadow_1506_812" result="shape"/></filter></defs></svg>