<svg xmlns="http://www.w3.org/2000/svg" width="249" height="204" fill="none"><path fill="#42A0F0" d="M61.626 151.552c.852.009 9.49 13.495 9.49 18.736a9.49 9.49 0 0 1-18.979 0c0-5.24 8.638-18.746 9.49-18.736"/><path fill="#fff" d="M54.392 173.834c.948.29 2.153-.902 2.691-2.663.539-1.76.206-3.423-.742-3.713s-2.153.903-2.691 2.664c-.539 1.76-.206 3.423.742 3.712"/><path fill="#42A0F0" d="M111.154 151.552c.852.009 9.489 13.495 9.489 18.736a9.489 9.489 0 0 1-18.978 0c0-5.24 8.637-18.746 9.489-18.736"/><path fill="#fff" d="M103.919 173.834c.948.29 2.153-.902 2.691-2.663.539-1.76.207-3.423-.742-3.713-.948-.29-2.153.903-2.691 2.664-.538 1.76-.206 3.423.742 3.712"/><path fill="#42A0F0" d="M160.681 151.552c.852.009 9.489 13.495 9.489 18.736a9.489 9.489 0 0 1-18.978 0c0-5.24 8.637-18.746 9.489-18.736"/><path fill="#fff" d="M153.446 173.834c.948.29 2.153-.902 2.692-2.663.538-1.76.206-3.423-.742-3.713-.949-.29-2.154.903-2.692 2.664-.538 1.76-.206 3.423.742 3.712"/><path fill="#42A0F0" d="M86.656 110.013c.852.009 9.49 13.495 9.49 18.736a9.49 9.49 0 0 1-18.979 0c0-5.24 8.638-18.746 9.49-18.736"/><path fill="#fff" d="M79.422 132.296c.948.289 2.153-.903 2.691-2.664.538-1.76.206-3.423-.742-3.713s-2.153.903-2.691 2.664c-.539 1.76-.207 3.423.742 3.713"/><path fill="#42A0F0" d="M138.846 110.013c.852.009 9.489 13.495 9.489 18.736a9.49 9.49 0 0 1-9.489 9.489 9.492 9.492 0 0 1-9.489-9.489c0-5.24 8.638-18.746 9.489-18.736"/><path fill="#fff" d="M131.612 132.296c.948.289 2.153-.903 2.691-2.664.538-1.76.206-3.423-.742-3.713s-2.153.903-2.692 2.664c-.538 1.76-.206 3.423.743 3.713"/><g filter="url(#a)"><path fill="url(#b)" d="M160.245 145.694H58.297a38.3 38.3 0 0 1-28.622-63.713A38.3 38.3 0 0 1 55.266 69.22a47.94 47.94 0 0 1 89.268-16.75 47.954 47.954 0 0 1 58.598 66.717 38.31 38.31 0 0 1-36.448 26.507z"/><path fill="#fff" fill-opacity=".5" d="M166.684 145.161c4.111 0 8.153-.657 12.014-1.951a37.6 37.6 0 0 0 10.417-5.43 37.9 37.9 0 0 0 8.188-8.275 37.6 37.6 0 0 0 5.322-10.482l.013-.038.018-.036a47 47 0 0 0 3.689-10.127 47.6 47.6 0 0 0 1.297-11.058c0-3.216-.324-6.43-.963-9.553a47.2 47.2 0 0 0-7.132-16.947 47.7 47.7 0 0 0-12.803-12.803 47.178 47.178 0 0 0-16.947-7.132 47.7 47.7 0 0 0-9.552-.962 47.3 47.3 0 0 0-15.536 2.605l-.421.145-.218-.387a47.64 47.64 0 0 0-17.061-17.515 47.2 47.2 0 0 0-11.474-4.933 47.5 47.5 0 0 0-12.806-1.75A47.2 47.2 0 0 0 71.5 40.275a47.4 47.4 0 0 0-10.376 12.932 47 47 0 0 0-5.33 16.085l-.06.424-.426.033c-4.771.374-9.361 1.63-13.643 3.733A37.7 37.7 0 0 0 30.623 81.7a37.64 37.64 0 0 0-10.09 25.697 37.5 37.5 0 0 0 2.967 14.7 37.7 37.7 0 0 0 3.482 6.414 38 38 0 0 0 10.201 10.202 37.7 37.7 0 0 0 6.415 3.481 37.5 37.5 0 0 0 14.7 2.968h108.386m0 .532H58.297c-21.15 0-38.297-17.146-38.297-38.297 0-20.13 15.532-36.634 35.266-38.179C58.53 45.924 78.536 28 102.729 28c17.948 0 33.592 9.865 41.805 24.469a47.9 47.9 0 0 1 15.711-2.635c26.47 0 47.929 21.46 47.929 47.93 0 7.7-1.815 14.976-5.042 21.423-4.973 15.381-19.411 26.506-36.448 26.506"/></g><defs><linearGradient id="b" x1="114.101" x2="168.763" y1="28.001" y2="160.161" gradientUnits="userSpaceOnUse"><stop stop-color="#fff" stop-opacity=".604"/><stop offset="1" stop-color="#fff" stop-opacity=".2"/></linearGradient><filter id="a" width="248.174" height="177.694" x="0" y="0" color-interpolation-filters="sRGB" filterUnits="userSpaceOnUse"><feFlood flood-opacity="0" result="BackgroundImageFix"/><feColorMatrix in="SourceAlpha" result="hardAlpha" values="0 0 0 0 0 0 0 0 0 0 0 0 0 0 0 0 0 0 127 0"/><feOffset dx="10" dy="2"/><feGaussianBlur stdDeviation="15"/><feColorMatrix values="0 0 0 0 0 0 0 0 0 0 0 0 0 0 0 0 0 0 0.25 0"/><feBlend in2="BackgroundImageFix" result="effect1_dropShadow_1506_808"/><feBlend in="SourceGraphic" in2="effect1_dropShadow_1506_808" result="shape"/></filter></defs></svg>