<svg xmlns="http://www.w3.org/2000/svg" width="249" height="209" fill="none"><path fill="#42A0F0" fill-rule="evenodd" d="M75.695 111.521a2.49 2.49 0 0 1 3.414.8l35.512 56.82a2.456 2.456 0 0 1-.791 3.396 2.49 2.49 0 0 1-3.414-.801l-35.512-56.82a2.455 2.455 0 0 1 .791-3.395" clip-rule="evenodd"/><path fill="#42A0F0" fill-rule="evenodd" d="M89.961 108.942c1.315.334 2.109 1.688 1.772 3.024l-4.083 16.218c-.336 1.336-1.675 2.149-2.99 1.815s-2.109-1.688-1.772-3.025l4.083-16.217c.336-1.337 1.675-2.149 2.99-1.815" clip-rule="evenodd"/><path fill="#42A0F0" fill-rule="evenodd" d="M66.75 123.584c.266-1.352 1.562-2.235 2.893-1.971l16.415 3.248c1.33.264 2.193 1.573 1.926 2.925s-1.562 2.235-2.893 1.972l-16.415-3.249c-1.331-.263-2.194-1.573-1.927-2.925M102.112 157.632c.288-1.348 1.597-2.21 2.923-1.925l16.099 3.456c1.327.285 2.169 1.608 1.881 2.956s-1.597 2.209-2.923 1.925l-16.1-3.456c-1.326-.285-2.168-1.609-1.88-2.956" clip-rule="evenodd"/><path fill="#42A0F0" fill-rule="evenodd" d="M105.47 155.473c1.309.355 2.081 1.722 1.724 3.053l-4.406 16.415c-.357 1.331-1.708 2.122-3.018 1.766s-2.082-1.722-1.724-3.052l4.405-16.415c.358-1.331 1.709-2.122 3.019-1.767M111.735 110.442c1.139.604 1.509 2.134.827 3.417l-31.45 59.164c-.683 1.284-2.16 1.835-3.299 1.231s-1.51-2.133-.827-3.417l31.451-59.164c.683-1.284 2.159-1.835 3.298-1.231" clip-rule="evenodd"/><path fill="#42A0F0" fill-rule="evenodd" d="M120.83 121.112c.285 1.341-.539 2.788-1.84 3.232l-15.781 5.396c-1.301.444-2.586-.282-2.871-1.622s.539-2.787 1.84-3.232l15.781-5.395c1.301-.445 2.586.281 2.871 1.621" clip-rule="evenodd"/><path fill="#42A0F0" fill-rule="evenodd" d="M97.226 108.693c1.278-.539 2.618.083 2.995 1.388l4.645 16.11c.376 1.305-.355 2.8-1.632 3.339-1.278.538-2.618-.083-2.995-1.389l-4.645-16.109c-.376-1.306.354-2.801 1.632-3.339M85.414 156.341c1.284-.517 2.613.128 2.969 1.441l4.32 15.935c.355 1.314-.396 2.799-1.68 3.317s-2.612-.128-2.968-1.441l-4.32-15.935c-.356-1.314.396-2.799 1.68-3.317" clip-rule="evenodd"/><path fill="#42A0F0" fill-rule="evenodd" d="M88.283 157.803c.264 1.347-.58 2.783-1.885 3.206l-16.11 5.227c-1.305.423-2.577-.325-2.842-1.672-.264-1.348.58-2.783 1.886-3.206l16.11-5.227c1.305-.423 2.577.325 2.841 1.672M130.322 141.264c-.038 1.463-1.116 2.687-2.407 2.732l-66.962 2.345c-1.292.045-2.307-1.105-2.27-2.569.039-1.463 1.116-2.687 2.407-2.732l66.963-2.345c1.291-.045 2.307 1.105 2.269 2.569" clip-rule="evenodd"/><path fill="#42A0F0" fill-rule="evenodd" d="M125.736 154.231c-.812 1.178-2.284 1.431-3.288.564l-12.309-10.635c-1.004-.867-1.159-2.526-.346-3.704.812-1.179 2.285-1.431 3.288-.564l12.309 10.634c1.004.868 1.159 2.526.346 3.705" clip-rule="evenodd"/><path fill="#42A0F0" fill-rule="evenodd" d="M125.295 127.669c.83 1.076.701 2.753-.288 3.744l-12.299 12.322c-.99.991-2.464.922-3.294-.155s-.701-2.753.288-3.744l12.299-12.322c.989-.991 2.464-.922 3.294.155M78.104 141.271c.815 1.092.663 2.767-.339 3.741l-12.287 11.95c-1.002.975-2.474.88-3.29-.212-.814-1.092-.662-2.767.34-3.741l12.287-11.95c1.002-.974 2.474-.879 3.29.212" clip-rule="evenodd"/><path fill="#42A0F0" fill-rule="evenodd" d="M77.692 144.398c-.828 1.165-2.303 1.392-3.294.506l-12.322-11.005c-.99-.886-1.123-2.548-.295-3.713s2.302-1.392 3.293-.507l12.322 11.006c.991.885 1.124 2.547.296 3.713M166.194 148.161a1.47 1.47 0 0 1 .756 1.952l-13.512 30.344a1.5 1.5 0 0 1-1.967.767 1.473 1.473 0 0 1-.756-1.953l13.512-30.344a1.5 1.5 0 0 1 1.967-.766" clip-rule="evenodd"/><path fill="#42A0F0" fill-rule="evenodd" d="M171.234 153.571c.276.792-.119 1.649-.882 1.915l-7.628 2.651c-.762.265-1.604-.163-1.88-.955s.118-1.649.881-1.914l7.628-2.651c.763-.265 1.605.162 1.881.954" clip-rule="evenodd"/><path fill="#42A0F0" fill-rule="evenodd" d="M158.389 147.725c.737-.331 1.609.023 1.949.79l3.449 7.796c.34.767.017 1.657-.719 1.988-.737.331-1.609-.022-1.949-.789l-3.449-7.797c-.34-.767-.017-1.657.719-1.988M154.198 171.696c.742-.319 1.61.049 1.937.821l3.277 7.722c.327.772-.008 1.656-.75 1.975-.743.319-1.61-.049-1.937-.821l-3.277-7.722c-.328-.772.008-1.656.75-1.975" clip-rule="evenodd"/><path fill="#42A0F0" fill-rule="evenodd" d="M156.407 172.85c.264.796-.144 1.646-.911 1.899l-7.797 2.567c-.767.252-1.603-.189-1.866-.985s.143-1.646.91-1.899l7.797-2.567c.767-.252 1.603.188 1.867.985M176.635 162.902c.069.864-.509 1.631-1.29 1.713l-33.034 3.47c-.781.082-1.47-.552-1.538-1.416s.508-1.631 1.289-1.713l33.035-3.47c.781-.082 1.469.552 1.538 1.416" clip-rule="evenodd"/><path fill="#42A0F0" fill-rule="evenodd" d="M174.771 170.012c-.458.682-1.349.805-1.991.273l-6.47-5.361c-.642-.532-.79-1.516-.332-2.198.458-.683 1.349-.805 1.99-.274l6.471 5.362c.641.531.79 1.515.332 2.198" clip-rule="evenodd"/><path fill="#42A0F0" fill-rule="evenodd" d="M173.309 156.194c.6.588.672 1.579.16 2.214l-5.232 6.49c-.512.634-1.413.671-2.012.083-.6-.588-.672-1.579-.16-2.213l5.232-6.49c.512-.635 1.413-.672 2.012-.084M150.452 164.551c.592.598.649 1.59.129 2.215l-5.253 6.306c-.521.625-1.423.647-2.015.049-.591-.598-.649-1.589-.128-2.214l5.253-6.306c.52-.625 1.422-.647 2.014-.05" clip-rule="evenodd"/><path fill="#42A0F0" fill-rule="evenodd" d="M150.669 166.81c-.468.674-1.362.781-1.996.239l-6.49-5.546c-.634-.542-.769-1.528-.301-2.202s1.361-.781 1.996-.239l6.49 5.546c.634.542.769 1.528.301 2.202M169.238 179.421c-.634.457-1.558.262-2.064-.435l-19.523-26.874c-.507-.698-.404-1.634.229-2.091s1.558-.262 2.064.436l19.523 26.873c.507.698.404 1.634-.229 2.091" clip-rule="evenodd"/><path fill="#42A0F0" fill-rule="evenodd" d="M162.369 181.16c-.806-.177-1.382-.978-1.287-1.791l.961-8.139c.096-.813.827-1.328 1.634-1.151s1.383.978 1.287 1.791l-.961 8.139c-.095.813-.827 1.328-1.634 1.151" clip-rule="evenodd"/><path fill="#42A0F0" fill-rule="evenodd" d="M173.316 173.24c-.07.817-.782 1.358-1.591 1.208l-8.249-1.53c-.809-.15-1.409-.934-1.34-1.752.07-.817.782-1.358 1.592-1.208l8.248 1.53c.809.15 1.409.934 1.34 1.752M154.653 157.621c-.082.815-.804 1.344-1.612 1.181l-8.099-1.634c-.808-.163-1.397-.956-1.315-1.771s.805-1.344 1.613-1.181l8.099 1.634c.808.163 1.396.956 1.314 1.771" clip-rule="evenodd"/><path fill="#42A0F0" fill-rule="evenodd" d="M153.093 158.682c-.805-.189-1.37-.999-1.261-1.809l1.107-8.248c.109-.809.849-1.312 1.654-1.122s1.37.999 1.261 1.809l-1.107 8.248c-.109.809-.849 1.312-1.654 1.122" clip-rule="evenodd"/><g filter="url(#a)"><path fill="url(#b)" d="M160.245 145.694H58.297a38.3 38.3 0 0 1-28.622-63.713A38.3 38.3 0 0 1 55.266 69.22a47.94 47.94 0 0 1 89.268-16.748 47.953 47.953 0 0 1 58.599 66.714 38.31 38.31 0 0 1-36.449 26.509z"/><path fill="#fff" fill-opacity=".5" d="M166.684 145.161c4.112 0 8.154-.657 12.015-1.951a37.6 37.6 0 0 0 10.418-5.43 38 38 0 0 0 8.188-8.276 37.6 37.6 0 0 0 5.321-10.483l.013-.038.018-.037a47.2 47.2 0 0 0 3.688-10.126c.861-3.6 1.297-7.32 1.297-11.056 0-3.216-.324-6.43-.963-9.553a47.2 47.2 0 0 0-7.131-16.947 47.8 47.8 0 0 0-5.788-7.015 47.414 47.414 0 0 0-15.066-10.158 47 47 0 0 0-8.896-2.761 47.8 47.8 0 0 0-9.553-.963c-5.325 0-10.553.876-15.536 2.605l-.421.145-.218-.387a47.65 47.65 0 0 0-17.061-17.515 47.15 47.15 0 0 0-24.28-6.683A47.2 47.2 0 0 0 71.5 40.275a47.4 47.4 0 0 0-10.376 12.932 47 47 0 0 0-5.33 16.085l-.06.424-.426.033c-4.771.374-9.361 1.63-13.643 3.733A37.7 37.7 0 0 0 30.623 81.7a37.64 37.64 0 0 0-10.09 25.697 37.5 37.5 0 0 0 2.967 14.7 37.7 37.7 0 0 0 3.482 6.414 38 38 0 0 0 10.201 10.202 38 38 0 0 0 6.415 3.481 37.5 37.5 0 0 0 14.7 2.968h108.386m0 .532H58.297c-21.15 0-38.297-17.146-38.297-38.297 0-20.13 15.532-36.634 35.266-38.179C58.53 45.924 78.536 28 102.729 28c17.948 0 33.592 9.865 41.805 24.469a47.9 47.9 0 0 1 15.711-2.635c26.471 0 47.929 21.46 47.929 47.93a47.7 47.7 0 0 1-5.041 21.421c-4.971 15.383-19.411 26.508-36.449 26.508"/></g><defs><linearGradient id="b" x1="114.101" x2="168.763" y1="28.001" y2="160.161" gradientUnits="userSpaceOnUse"><stop stop-color="#fff" stop-opacity=".604"/><stop offset="1" stop-color="#fff" stop-opacity=".2"/></linearGradient><filter id="a" width="248.174" height="177.694" x="0" y="0" color-interpolation-filters="sRGB" filterUnits="userSpaceOnUse"><feFlood flood-opacity="0" result="BackgroundImageFix"/><feColorMatrix in="SourceAlpha" result="hardAlpha" values="0 0 0 0 0 0 0 0 0 0 0 0 0 0 0 0 0 0 127 0"/><feOffset dx="10" dy="2"/><feGaussianBlur stdDeviation="15"/><feColorMatrix values="0 0 0 0 0 0 0 0 0 0 0 0 0 0 0 0 0 0 0.25 0"/><feBlend in2="BackgroundImageFix" result="effect1_dropShadow_1506_811"/><feBlend in="SourceGraphic" in2="effect1_dropShadow_1506_811" result="shape"/></filter></defs></svg>