<svg xmlns="http://www.w3.org/2000/svg" width="200" height="200" fill="none"><g fill="#DADADA" fill-rule="evenodd" clip-rule="evenodd" filter="url(#a)"><path d="M141.768 54.31c3.983-1.669 8.598-1.837 13.645.04 10.181 3.788 15.101 13.333 15.104 22.31.004 8.993-4.971 18.423-15.452 21.467-4.565 1.326-12.641 2.159-21.621 2.733-9.173.587-19.864.931-30.01 1.132-10.154.2-19.807.256-26.919.262a1497 1497 0 0 1-10.872-.031l-.62-.005-.213-.002.047-5 .048-5h.002l.202.003.609.004c.534.004 1.322.01 2.331.015 2.02.01 4.923.02 8.458.016a1449 1449 0 0 0 26.73-.26c10.082-.2 20.607-.54 29.568-1.114 9.154-.585 16.132-1.386 19.471-2.356 5.324-1.546 8.243-6.324 8.241-11.86-.001-5.551-2.984-10.855-8.59-12.94-2.846-1.06-4.825-.806-6.294-.19-1.611.674-3.107 2.004-4.447 3.824-1.327 1.803-2.309 3.83-2.967 5.471a28 28 0 0 0-.702 1.948 19 19 0 0 0-.186.624l-.001.004-.002.008-.001.002a5 5 0 0 1-9.681-2.503l4.842 1.244c-4.842-1.244-4.842-1.246-4.841-1.248l.004-.015.007-.026.02-.076.066-.238c.056-.197.136-.467.241-.798.21-.662.523-1.578.952-2.648.847-2.111 2.2-4.966 4.195-7.676 1.983-2.694 4.796-5.511 8.636-7.12M59.857 97.17a5 5 0 0 1 5.048-4.952l-.048 5-.048 4.999a5 5 0 0 1-4.952-5.047M83.49 127.229v-.014za5 5 0 0 1-1.03-9.947l.515 4.973-.514-4.973.183-.019.52-.052a618.444 618.444 0 0 1 9.107-.818 630 630 0 0 1 22.863-1.478c8.715-.394 18.065-.595 26.398-.295 8.16.293 15.929 1.079 21.136 2.922 5.009 1.773 8.864 4.282 11.32 7.549 2.538 3.374 3.318 7.223 2.657 10.909-1.255 6.991-7.396 12.534-14.072 14.746-3.493 1.157-6.722 1.244-9.606.482-2.847-.752-5.046-2.248-6.661-3.789-1.6-1.528-2.697-3.166-3.387-4.385a19 19 0 0 1-1.008-2.061l-.066-.167-.023-.061-.009-.024-.004-.011-.002-.005c-.001-.003-.002-.005 4.564-1.678l-4.566 1.673a5 5 0 0 1 9.376-3.478q.013.034.066.154c.072.16.195.416.372.729.365.644.898 1.418 1.593 2.081.68.649 1.44 1.124 2.309 1.354.833.22 2.077.3 3.906-.306 4.245-1.407 6.942-4.608 7.375-7.021.182-1.016.02-2.034-.806-3.132-.907-1.207-2.836-2.777-6.664-4.132-3.63-1.285-10.033-2.063-18.16-2.356-7.953-.286-17.004-.096-25.586.292-8.569.387-16.601.969-22.495 1.454-2.945.242-5.351.461-7.019.618-.834.078-1.483.142-1.921.185l-.497.05zm67.703 10.046v-.001zm0 0c.001.003.002.005-4.693 1.725l4.695-1.72zM30.733 124.882a5 5 0 0 1 5-5h21.302a5 5 0 0 1 0 10H35.733a5 5 0 0 1-5-5"/><path d="M110.851 65.705a5 5 0 0 1-4.495 5.459l-.482-4.977.482 4.977-.309.03-.874.08c-.76.07-1.865.17-3.249.29-2.768.238-6.66.556-11.157.874-8.969.635-20.448 1.276-30.256 1.276-9.74 0-18.708-.34-25.237-.68-3.267-.17-5.93-.34-7.779-.468a300 300 0 0 1-2.705-.2l-.148-.012-.055-.004.413-4.983-.413 4.983a5 5 0 0 1 .826-9.966l.04.003.132.01.532.042c.47.036 1.169.088 2.069.15 1.8.125 4.404.292 7.608.458 6.411.334 15.199.667 24.717.667 9.452 0 20.654-.622 29.551-1.25a727 727 0 0 0 14.195-1.148c.371-.034.657-.06.849-.079l.286-.027a5 5 0 0 1 5.459 4.495"/></g><defs><filter id="a" width="186.869" height="128.723" x="9" y="40" color-interpolation-filters="sRGB" filterUnits="userSpaceOnUse"><feFlood flood-opacity="0" result="BackgroundImageFix"/><feColorMatrix in="SourceAlpha" result="hardAlpha" values="0 0 0 0 0 0 0 0 0 0 0 0 0 0 0 0 0 0 127 0"/><feOffset dx="4" dy="2"/><feGaussianBlur stdDeviation="7.5"/><feComposite in2="hardAlpha" operator="out"/><feColorMatrix values="0 0 0 0 0.854167 0 0 0 0 0.854167 0 0 0 0 0.854167 0 0 0 1 0"/><feBlend in2="BackgroundImageFix" result="effect1_dropShadow_1506_804"/><feBlend in="SourceGraphic" in2="effect1_dropShadow_1506_804" result="shape"/></filter></defs></svg>