<svg xmlns="http://www.w3.org/2000/svg" width="248" height="213" fill="none"><path fill="url(#a)" d="M104.775 106.212h36.218l-20.821 30.576 24.344.46-51.097 60.478 12.381-46.109H83.134z"/><path fill="url(#b)" d="M160.739 138.393h15.902l-9.141 13.424 10.688.202-22.435 26.553 5.436-20.244h-9.949z"/><path fill="url(#c)" d="M50.603 151.969h15.902l-9.141 13.425 10.688.202-22.435 26.553 5.437-20.245h-9.95z"/><g filter="url(#d)"><path fill="url(#e)" d="M160.114 145.585H58.261a38.264 38.264 0 0 1-3.028-76.404 47.896 47.896 0 0 1 89.185-16.733 47.909 47.909 0 0 1 58.544 66.655 38.281 38.281 0 0 1-36.414 26.482z"/><path fill="#fff" fill-opacity=".5" d="M166.548 145.052c4.107 0 8.146-.655 12.003-1.949a37.6 37.6 0 0 0 10.408-5.425 37.9 37.9 0 0 0 8.18-8.267 37.6 37.6 0 0 0 5.317-10.472l.012-.039.018-.036a47 47 0 0 0 3.687-10.117 47.6 47.6 0 0 0 1.295-11.048c0-3.213-.324-6.424-.962-9.544a47.1 47.1 0 0 0-7.125-16.93 47.7 47.7 0 0 0-12.791-12.792 47.127 47.127 0 0 0-16.931-7.125 47.7 47.7 0 0 0-9.544-.962c-5.321 0-10.543.876-15.522 2.603l-.42.145-.218-.387a47.6 47.6 0 0 0-17.045-17.499 47.1 47.1 0 0 0-24.257-6.676 47.16 47.16 0 0 0-31.2 11.73 47.4 47.4 0 0 0-10.367 12.92 46.9 46.9 0 0 0-5.326 16.071l-.059.423-.426.034a37.4 37.4 0 0 0-13.63 3.73 37.7 37.7 0 0 0-11.032 8.21 37.6 37.6 0 0 0-10.08 25.673c0 5.093.996 10.034 2.964 14.686a37.8 37.8 0 0 0 3.478 6.408 38 38 0 0 0 4.608 5.585 38 38 0 0 0 5.584 4.607 37.497 37.497 0 0 0 21.095 6.443h108.286m0 .532H58.262C37.13 145.584 20 128.454 20 107.323c0-20.113 15.517-36.6 35.233-38.144C58.495 45.908 78.483 28 102.653 28c17.931 0 33.56 9.855 41.766 24.446a47.8 47.8 0 0 1 15.696-2.632C186.561 49.814 208 71.254 208 97.7a47.7 47.7 0 0 1-5.038 21.403c-4.968 15.367-19.393 26.482-36.414 26.482"/></g><defs><linearGradient id="a" x1="108.178" x2="79.506" y1="151.969" y2="141.458" gradientUnits="userSpaceOnUse"><stop stop-color="#FFD100"/><stop offset="1" stop-color="#FFF0AA"/></linearGradient><linearGradient id="b" x1="162.235" x2="149.647" y1="158.483" y2="153.868" gradientUnits="userSpaceOnUse"><stop stop-color="#FFD100"/><stop offset="1" stop-color="#FFF0AA"/></linearGradient><linearGradient id="c" x1="52.099" x2="39.511" y1="172.059" y2="167.445" gradientUnits="userSpaceOnUse"><stop stop-color="#FFD100"/><stop offset="1" stop-color="#FFF0AA"/></linearGradient><linearGradient id="e" x1="114.013" x2="168.624" y1="28.001" y2="160.039" gradientUnits="userSpaceOnUse"><stop stop-color="#fff" stop-opacity=".604"/><stop offset="1" stop-color="#fff" stop-opacity=".2"/></linearGradient><filter id="d" width="248" height="177.585" x="0" y="0" color-interpolation-filters="sRGB" filterUnits="userSpaceOnUse"><feFlood flood-opacity="0" result="BackgroundImageFix"/><feColorMatrix in="SourceAlpha" result="hardAlpha" values="0 0 0 0 0 0 0 0 0 0 0 0 0 0 0 0 0 0 127 0"/><feOffset dx="10" dy="2"/><feGaussianBlur stdDeviation="15"/><feColorMatrix values="0 0 0 0 0.501961 0 0 0 0 0.501961 0 0 0 0 0.501961 0 0 0 0.302 0"/><feBlend in2="BackgroundImageFix" result="effect1_dropShadow_1506_806"/><feBlend in="SourceGraphic" in2="effect1_dropShadow_1506_806" result="shape"/></filter></defs></svg>