<svg xmlns="http://www.w3.org/2000/svg" width="216" height="200" fill="none"><g filter="url(#a)"><path fill="url(#b)" d="M58.562 113.615c0-3.813 2.304-7.395 6.345-10.505-13.701-5.82-22.333-14.298-22.333-23.738 0-17.548 29.823-31.774 66.614-31.774 36.79 0 66.613 14.226 66.613 31.774 0 9.533-8.796 18.082-22.731 23.906 3.907 3.071 6.128 6.592 6.128 10.337 0 11.929-22.526 21.594-50.317 21.594-27.79 0-50.319-9.668-50.319-21.594"/><path fill="#fff" fill-opacity=".5" d="M108.88 134.676c6.761 0 13.319-.568 19.491-1.688 5.952-1.08 11.295-2.626 15.879-4.593 2.251-.966 4.293-2.028 6.069-3.156 1.783-1.133 3.313-2.342 4.546-3.593 2.522-2.559 3.801-5.261 3.801-8.031 0-1.738-.513-3.47-1.523-5.147-.996-1.653-2.477-3.259-4.402-4.771l-.713-.56.837-.35c3.453-1.443 6.599-3.062 9.35-4.81 2.762-1.756 5.139-3.651 7.064-5.632 1.948-2.006 3.444-4.112 4.447-6.26 1.024-2.193 1.543-4.451 1.543-6.713 0-2.083-.441-4.167-1.311-6.193-.852-1.988-2.128-3.947-3.79-5.822-1.643-1.852-3.678-3.64-6.051-5.315-2.358-1.665-5.069-3.232-8.056-4.657-2.993-1.428-6.288-2.724-9.792-3.854a104 104 0 0 0-11.258-2.914c-8.178-1.65-16.866-2.487-25.823-2.487s-17.646.837-25.824 2.487a104 104 0 0 0-11.257 2.914c-3.505 1.13-6.8 2.426-9.793 3.854-2.987 1.425-5.698 2.992-8.056 4.657-2.373 1.675-4.408 3.463-6.05 5.315-1.663 1.875-2.938 3.834-3.791 5.822-.87 2.026-1.31 4.11-1.31 6.193 0 2.24.509 4.477 1.513 6.65.985 2.129 2.454 4.217 4.366 6.208 1.89 1.966 4.225 3.849 6.939 5.596 2.702 1.739 5.794 3.352 9.19 4.794l.839.357-.723.555c-1.992 1.533-3.526 3.163-4.558 4.845-1.047 1.706-1.578 3.468-1.578 5.238 0 2.77 1.279 5.472 3.8 8.031 1.234 1.251 2.763 2.46 4.546 3.593 1.776 1.128 3.818 2.19 6.07 3.156 4.583 1.967 9.926 3.513 15.878 4.593 6.173 1.12 12.73 1.688 19.491 1.688m0 .533c-27.79 0-50.318-9.668-50.318-21.594 0-3.813 2.303-7.396 6.344-10.505-13.7-5.82-22.332-14.298-22.332-23.738 0-17.548 29.824-31.774 66.614-31.774 36.789 0 66.613 14.226 66.613 31.774 0 9.532-8.797 18.082-22.731 23.906 3.907 3.07 6.128 6.592 6.128 10.337 0 11.926-22.528 21.594-50.318 21.594"/></g><path fill="#B2B2B2" fill-rule="evenodd" d="M32.13 79.767c0-5.602 5.15-12.27 17.231-17.828 11.652-5.36 28.1-8.809 46.537-8.809s34.885 3.448 46.536 8.809c12.082 5.558 17.232 12.226 17.232 17.828s-5.15 12.27-17.232 17.828c-11.651 5.361-28.1 8.809-46.536 8.809-18.437 0-34.885-3.448-46.536-8.809C37.279 92.037 32.13 85.37 32.13 79.767M95.898 43.13c-19.543 0-37.479 3.634-50.716 9.724C32.375 58.746 22.13 67.896 22.13 79.767c0 10.737 8.382 19.248 19.46 25.136a32 32 0 0 0-1.936 3.16c-1.717 3.209-3.154 7.24-3.154 11.437 0 2.075.561 5.094 3.08 8.179 2.437 2.983 6.406 5.661 12.525 7.793 1.443.502 3.025.981 4.761 1.43-.537 1.455-.866 3.147-.866 5.098 0 3.653 1.963 6.746 4.629 9.012 2.663 2.265 6.331 4.006 10.765 5.193 8.885 2.379 21.805 2.794 38.988-.283a5 5 0 1 0-1.764-9.844c-16.317 2.923-27.647 2.338-34.637.467-3.504-.938-5.68-2.135-6.875-3.151-.964-.819-1.092-1.324-1.106-1.407.003-1.798.67-2.438 1.041-2.742q.211-.17.422-.292c13.087 1.843 31.867 2.392 58.88.535a5 5 0 0 0 4.645-5.331 5 5 0 0 0-5.331-4.645c-39.838 2.739-60.127.047-70.262-3.484-5.006-1.743-7.162-3.565-8.07-4.675-.824-1.009-.825-1.678-.825-1.853 0-2.013.73-4.398 1.971-6.72a20.8 20.8 0 0 1 2.511-3.7c12.468 4.632 28.097 7.324 44.916 7.324 19.543 0 37.478-3.634 50.716-9.724 12.807-5.892 23.052-15.042 23.052-26.913 0-11.87-10.245-21.021-23.052-26.913-13.238-6.09-31.173-9.724-50.716-9.724" clip-rule="evenodd"/><path fill="#FFD100" fill-rule="evenodd" d="M47.456 141.597a1.5 1.5 0 0 1 0 2.122l-2.674 2.673a1.5 1.5 0 1 1-2.12-2.121l2.672-2.674a1.5 1.5 0 0 1 2.122 0" clip-rule="evenodd"/><path fill="#FFD100" fill-rule="evenodd" d="M42.661 141.597a1.5 1.5 0 0 1 2.121 0l2.674 2.674a1.5 1.5 0 1 1-2.122 2.121l-2.673-2.673a1.5 1.5 0 0 1 0-2.122M43.728 48.4a1.5 1.5 0 0 1 0 2.122l-2.673 2.674a1.5 1.5 0 0 1-2.122-2.122l2.674-2.673a1.5 1.5 0 0 1 2.121 0" clip-rule="evenodd"/><path fill="#FFD100" fill-rule="evenodd" d="M38.933 48.4a1.5 1.5 0 0 1 2.122 0l2.673 2.674a1.5 1.5 0 0 1-2.121 2.122l-2.674-2.674a1.5 1.5 0 0 1 0-2.121M157.694 130.414a1.5 1.5 0 0 1 0 2.121l-2.674 2.673a1.5 1.5 0 1 1-2.121-2.121l2.674-2.673a1.5 1.5 0 0 1 2.121 0" clip-rule="evenodd"/><path fill="#FFD100" fill-rule="evenodd" d="M152.899 130.414a1.5 1.5 0 0 1 2.121 0l2.674 2.673a1.5 1.5 0 1 1-2.121 2.121l-2.674-2.673a1.5 1.5 0 0 1 0-2.121M172.073 97.396a1.5 1.5 0 0 1 0 2.12l-2.674 2.674a1.5 1.5 0 1 1-2.121-2.121l2.673-2.673a1.5 1.5 0 0 1 2.122 0" clip-rule="evenodd"/><path fill="#FFD100" fill-rule="evenodd" d="M167.278 97.396a1.5 1.5 0 0 1 2.121 0l2.674 2.673a1.501 1.501 0 0 1-2.122 2.121l-2.673-2.673a1.5 1.5 0 0 1 0-2.121" clip-rule="evenodd"/><defs><linearGradient id="b" x1="96.531" x2="125.864" y1="58.637" y2="138.946" gradientUnits="userSpaceOnUse"><stop stop-color="#fff" stop-opacity=".596"/><stop offset="1" stop-color="#F7F7F7" stop-opacity=".204"/></linearGradient><filter id="a" width="193.227" height="147.612" x="22.574" y="19.598" color-interpolation-filters="sRGB" filterUnits="userSpaceOnUse"><feFlood flood-opacity="0" result="BackgroundImageFix"/><feColorMatrix in="SourceAlpha" result="hardAlpha" values="0 0 0 0 0 0 0 0 0 0 0 0 0 0 0 0 0 0 127 0"/><feOffset dx="10" dy="2"/><feGaussianBlur stdDeviation="15"/><feColorMatrix values="0 0 0 0 0.501961 0 0 0 0 0.501961 0 0 0 0 0.501961 0 0 0 0.302 0"/><feBlend in2="BackgroundImageFix" result="effect1_dropShadow_1506_809"/><feBlend in="SourceGraphic" in2="effect1_dropShadow_1506_809" result="shape"/></filter></defs></svg>